<?xml version="1.0" encoding="utf-8"?>
<!-- Generator: Adobe Illustrator 24.0.2, SVG Export Plug-In . SVG Version: 6.00 Build 0)  -->
<svg version="1.1" id="Livello_1" xmlns="http://www.w3.org/2000/svg" xmlns:xlink="http://www.w3.org/1999/xlink" x="0px" y="0px"
	 viewBox="0 0 522 185" style="enable-background:new 0 0 522 185;" xml:space="preserve">
<style type="text/css">
	.st0{fill:#282559;}
	.st1{fill:#DA642C;}
	.st2{fill:#3570B2;}
	.st3{fill:#AE2C2B;}
	.st4{fill:#5F2C7F;}
	.st5{fill:#49A297;}
	.st6{fill:#D85A31;}
</style>
<path class="st0" d="M408.6,0.7c-8.7-2.6-17.9,2.3-20.5,11c-0.1,0.4-0.2,0.7-0.3,1.1h20.8V0.7z"/>
<path class="st1" d="M387.4,16.9c0.2,8.9,7.5,16.1,16.5,16.1c1.6,0,3.2-0.2,4.7-0.7V16.9H387.4z"/>
<path class="st1" d="M408.6,12.9h-20.8c-0.3,1.2-0.4,2.4-0.4,3.6c0,0.1,0,0.3,0,0.4h21.2L408.6,12.9z"/>
<path class="st2" d="M409.6,1c-0.3-0.1-0.6-0.2-1-0.3v31.6c0.3-0.1,0.6-0.2,1-0.3c8.5-3.1,12.9-12.6,9.8-21.1
	C417.7,6.3,414.1,2.7,409.6,1L409.6,1z"/>
<polygon class="st3" points="389.9,95.1 389.9,124 379.4,124 379.4,128.6 399.5,128.6 399.5,95.1 "/>
<polygon class="st4" points="418.3,124 418.3,95.1 408.6,95.1 400.4,95.1 399.5,95.1 399.5,128.6 400.4,128.6 428.9,128.6 
	428.9,124 "/>
<polygon class="st0" points="389.9,79.1 389.9,93.7 389.9,95.1 399.5,95.1 400.4,95.1 408.6,95.1 408.6,93.8 408.6,79.1 "/>
<polygon class="st1" points="379.4,45.6 379.4,50.1 379.4,50.1 389.9,50.1 389.9,78 389.9,79.1 408.6,79.1 408.6,78 408.6,45.6 "/>
<polygon class="st5" points="418.3,45.6 408.6,45.6 408.6,78 408.6,79.1 408.6,93.8 408.6,95.1 418.3,95.1 418.3,93.8 418.3,78 
	418.3,52.4 "/>
<path class="st0" d="M16.1,128.7h-4.9l2.4-15.3H0.4l1-4.6h13l3.1-19.6H4.2l0.9-4.8h13.1L20.5,70h4.9l-2.3,14.4h17L42.3,70h4.9
	L45,84.4h13.4l-0.8,4.8H44.2l-3,19.6h13.2l-0.8,4.7H40.5l-2.4,15.4h-4.9l2.4-15.4h-17L16.1,128.7z M39.3,89.1h-17l-3.1,19.6h17
	L39.3,89.1z"/>
<path class="st0" d="M91.4,102.3h4.1v-8.1c0-6.5-0.5-10.9-1.5-13.2c-1-2.3-2.9-3.4-5.7-3.4c-4,0-6,1.3-6,4c0,0.9,0.1,1.7,0.4,2.5
	h2.9c0.6,1.5,0.9,3.1,0.9,4.7c0.1,2.2-0.8,4.4-2.5,5.9c-1.8,1.5-4.1,2.3-6.4,2.2c-5.7,0-8.6-2.9-8.6-8.6c-0.1-4.2,2.1-8,5.8-10
	c3.9-2.3,9.3-3.4,16.3-3.4c8.3,0,14.1,1.5,17.4,4.5s5,8.5,5,16.4v21.5c0,4.1,1.1,6.2,3.2,6.2c1.1,0,2-0.7,2.6-2.2s1.1-4.3,1.5-8.4
	l2.5,0.2c-0.3,6.3-1.5,10.6-3.5,13c-2,2.4-5.3,3.7-10,3.7c-8,0-12.7-2.6-13.8-7.7c-2.3,5.2-6.8,7.7-13.5,7.7
	c-10.8,0-16.2-4.4-16.2-13.3c0-5.4,2.1-9.2,6.3-11.2C76.9,103.3,83.1,102.3,91.4,102.3z M89.1,124.8c1.7,0,3.2-1,4.5-3
	c1.4-2.4,2.1-5.2,1.9-8V105h-1.7c-3.2,0-5.4,0.8-6.8,2.5s-2,4.5-2,8.4c0,3.4,0.3,5.7,0.9,7C86.5,124.2,87.8,124.9,89.1,124.8
	L89.1,124.8z"/>
<path class="st0" d="M125.4,76.1H150v9.7c3-7.2,8.8-10.8,17.3-10.8c11.3,0,16.9,6.2,16.9,18.5v32.4h6.8v2.9h-30.3v-2.9h5.5v-34
	c0-4.3-0.4-7.3-1.2-8.8s-2.4-2.4-4.2-2.3c-2.9,0-5.4,1.6-7.6,4.9c-2.2,3.5-3.4,7.6-3.3,11.7v28.4h5.6v2.9h-30.3v-2.9h6.6V79h-6.6
	L125.4,76.1L125.4,76.1z"/>
<path class="st0" d="M223.6,77.6c-3.8,0-6.6,1.8-8.2,5.5c-1.6,3.7-2.4,10.2-2.4,19.7c0,8.3,0.9,14.2,2.7,17.5c1.8,3.4,5,5,9.5,5
	c7.9,0,12.8-4.7,14.8-14l3,0.4c-0.3,1.5-0.7,3-1.2,4.5c-0.6,1.6-1.4,3.2-2.3,4.7c-1,1.7-2.4,3.3-4,4.5c-1.9,1.3-4,2.4-6.3,3
	c-3,0.9-6.1,1.3-9.2,1.3c-8.3,0-14.7-2.3-19.2-6.9s-6.7-11.2-6.7-19.7c0-9.1,2.5-16.1,7.6-21c5.1-4.8,12.1-7.2,21.1-7.2
	c6.4,0,11.3,1.3,14.7,3.8c3.3,2.4,5.2,6.2,5.1,10.2c0,3.2-0.8,5.6-2.3,7.3c-1.6,1.7-3.9,2.7-6.3,2.5c-2.4,0.1-4.7-0.7-6.5-2.2
	c-1.7-1.7-2.6-4-2.4-6.4c0-1.3,0.2-2.7,0.5-4h3.5c0.4-1.1,0.7-2.3,0.7-3.5c0-1.4-0.5-2.7-1.6-3.7C226.9,78,225.2,77.5,223.6,77.6z"
	/>
<path class="st0" d="M246.8,45.8h24.7v39.9c3-7.2,8.7-10.7,17.1-10.7c11.4,0,17,6.2,17,18.5v32.4h6.8v2.9h-30.3v-2.9h5.5V91.6
	c0-4.4-0.4-7.4-1.2-9c-0.6-1.5-2.1-2.4-3.7-2.3c-3.1,0-5.8,1.6-8,4.8c-2.3,3.5-3.4,7.5-3.3,11.7v29.1h5.6v2.9h-30.3v-2.9h6.6V48.6
	h-6.6v-2.8H246.8z"/>
<path class="st0" d="M315.5,102.6c0-9.1,2.6-16,7.8-20.7c5.2-4.6,12-7,20.3-7c15.8,0,23.4,8.4,22.8,25.2h-31.9v3.7
	c0,7.4,1,12.9,2.9,16.5c2,3.6,5.5,5.4,10.7,5.4c7.8,0,13-4.4,15.5-13.2l2.9,0.4c-1.1,4.8-3.7,9.1-7.4,12.4c-3.6,3-8.9,4.5-16.1,4.5
	c-9.1,0-15.9-2.5-20.5-7.4S315.5,111,315.5,102.6z M334.4,97.2H349c0-7.7-0.4-12.9-1.3-15.6c-0.6-2.5-2.8-4.1-5.4-4
	c-2.8,0-4.8,1.4-6.1,4.2S334.4,89.8,334.4,97.2L334.4,97.2z"/>
<path class="st0" d="M379.4,154.9h7.8v18.6h2.9v1.1h-10.7v-1.1h2.9V156h-2.9L379.4,154.9L379.4,154.9z M382.2,150.2
	c-0.5-0.6-0.7-1.3-0.7-2s0.2-1.5,0.7-2c0.6-0.5,1.4-0.8,2.2-0.8c0.8,0,1.6,0.2,2.2,0.7s0.8,1.3,0.8,2.1c0.1,1.5-1,2.7-2.5,2.9
	c-0.2,0-0.3,0-0.5,0C383.6,151.1,382.8,150.8,382.2,150.2z"/>
<path class="st0" d="M391.7,154.9h7.8v3.8c1.3-2.8,3.6-4.2,7-4.2c4.2,0,6.2,2.3,6.2,6.9v12.1h3v1.1H405v-1.1h2.8v-12.8
	c0.1-1.2-0.1-2.4-0.6-3.5c-0.5-0.7-1.4-1.1-2.2-1c-1.5,0-2.9,0.7-3.8,1.9c-1.1,1.3-1.7,2.9-1.6,4.6v10.9h2.8v1.1h-10.6v-1.1h2.9V156
	h-2.9L391.7,154.9L391.7,154.9z"/>
<path class="st0" d="M417.9,175.1v-7h1c0.2,1.7,1,3.2,2.3,4.3c1.3,1,2.9,1.5,4.5,1.4c3.2,0,4.7-1.1,4.7-3.4c0-0.5-0.1-1-0.4-1.5
	s-0.7-0.8-1.2-1s-1-0.4-1.6-0.6l-2.1-0.5l-2-0.5c-0.6-0.2-1.2-0.4-1.8-0.6c-0.6-0.2-1.2-0.6-1.7-1c-0.4-0.4-0.8-1-1-1.5
	c-0.3-0.7-0.5-1.5-0.4-2.3c0-1.7,0.7-3.4,1.9-4.6c1.4-1.2,3.2-1.9,5-1.8c1.4,0,2.8,0.4,4.1,1c0.4,0.2,0.8,0.3,1.2,0.3
	c0.4,0,0.6-0.4,0.7-1.3h0.9v6.2h-1c-0.9-3.3-2.9-4.9-5.8-4.9c-1.1-0.1-2.2,0.2-3.1,0.8c-0.7,0.5-1.2,1.3-1.2,2.2
	c0,1.3,0.8,2.2,2.4,2.7c0.8,0.3,1.6,0.5,2.4,0.6l0.4,0.1l2.5,0.6c0.8,0.2,1.5,0.5,2.1,0.9c0.8,0.4,1.4,1.1,1.7,1.9
	c0.4,0.9,0.6,1.9,0.6,2.9c0.1,1.8-0.7,3.6-2,4.8c-1.5,1.3-3.4,1.9-5.4,1.8c-1.9,0-3.7-0.5-5.4-1.4c-0.2-0.1-0.4-0.2-0.7-0.2
	c-0.4,0-0.6,0.5-0.9,1.6H417.9z"/>
<path class="st0" d="M435.6,164.9c0-3.5,0.9-6.1,2.7-7.8c1.9-1.8,4.5-2.8,7.2-2.6c5.5,0,8.2,3.1,7.9,9.4h-12.5v0.8
	c0,3,0.4,5.2,1.2,6.7c0.8,1.4,2.3,2.2,4.4,2.2c3.1,0,5-1.7,5.8-5l1.2,0.2c-0.9,4.2-3.7,6.3-8.3,6.3c-3.2,0-5.6-0.9-7.2-2.7
	C436.3,170.3,435.4,167.6,435.6,164.9z M440.9,162.8h7.6c0.2-1.9-0.1-3.8-0.6-5.5c-0.4-1.1-1.5-1.9-2.8-1.8
	c-1.3-0.1-2.5,0.6-3.1,1.8C441.2,159,440.8,160.9,440.9,162.8L440.9,162.8z"/>
<path class="st0" d="M472.3,161.3c0.1,1.9-0.6,3.8-2,5.2c-1.5,1.3-3.5,2-5.5,1.9c-1,0-2-0.1-3-0.3c-1.6,1-2.4,1.8-2.4,2.3
	s0.6,0.6,1.8,0.6h5.3c2.2-0.1,4.4,0.3,6.3,1.3c1.5,0.9,2.2,2.5,2.2,4.9c0,5.2-3.8,7.8-11.4,7.8c-2.3,0.1-4.6-0.3-6.7-1.2
	c-1.4-0.6-2.3-2-2.3-3.5c0-1.7,1-2.8,3.1-3.3l1.4,1c-0.3,0.7-0.4,1.4-0.4,2.1c0,2.6,2,3.9,5.9,3.9c2,0.1,4-0.4,5.7-1.4
	c1.3-0.8,2-2.2,2-3.7c0.1-1.1-0.4-2.1-1.3-2.6c-1.4-0.6-3-0.9-4.5-0.8h-5c-3.1,0-4.7-1-4.7-3.1c0-0.8,0.3-1.6,0.9-2.2
	c0.9-0.9,1.8-1.8,2.9-2.5c-2.6-1-3.9-3-3.9-6.2c0-1.9,0.7-3.7,2.1-5s3.4-2,6.1-2c1.5,0,2.9,0.4,4.1,1.1c-0.2-1.4,0.2-2.8,0.9-4.1
	c0.7-1.2,2-1.8,3.3-1.8c0.8,0,1.5,0.2,2.1,0.7s0.9,1.2,0.8,2c0,0.6-0.2,1.1-0.6,1.6c-0.4,0.4-1,0.7-1.6,0.7c-0.5,0-0.9-0.1-1.3-0.4
	c-0.3-0.2-0.6-0.5-0.8-0.8l1-1.1c0-0.6-0.4-1-1-1h-0.1c-0.6,0-1.1,0.4-1.3,0.9c-0.4,0.9-0.6,1.8-0.5,2.8c0,0.4,0,0.8,0.1,1.2
	C471.6,157.5,472.4,159.4,472.3,161.3z M461.4,161.5c-0.1,1.5,0.1,3.1,0.8,4.5c0.5,0.8,1.5,1.3,2.4,1.3s1.8-0.4,2.3-1.2
	s0.8-2.4,0.8-4.6c0.1-1.6-0.1-3.2-0.7-4.6c-0.5-0.9-1.4-1.4-2.3-1.3c-1,0-1.9,0.5-2.4,1.3C461.6,158.3,461.3,159.9,461.4,161.5
	L461.4,161.5z"/>
<path class="st0" d="M476.4,154.9h7.8v3.8c1.3-2.8,3.6-4.2,7-4.2c4.2,0,6.2,2.3,6.2,6.9v12.1h2.9v1.1h-10.6v-1.1h2.8v-12.8
	c0.1-1.2-0.1-2.4-0.6-3.5c-0.5-0.7-1.4-1.1-2.2-1c-1.5,0-2.9,0.7-3.8,1.9c-1.1,1.3-1.7,2.9-1.6,4.6v10.9h2.8v1.1h-10.6v-1.1h2.9V156
	h-2.9L476.4,154.9L476.4,154.9z"/>
<path class="st0" d="M502.3,164.9c0-3.3,0.9-5.9,2.6-7.7c1.9-1.9,4.6-2.8,7.2-2.7c6.3,0,9.5,3.4,9.5,10.1c0,3.3-0.8,5.8-2.5,7.7
	c-1.7,1.8-4.1,2.8-7.2,2.8c-3.1,0-5.5-0.9-7.2-2.7C503.1,170.6,502.3,168.1,502.3,164.9z M516.4,164.7c0-1.6-0.1-3.2-0.3-4.8
	c-0.2-1.1-0.6-2.2-1.3-3.1c-0.7-0.8-1.7-1.3-2.8-1.3c-1.6-0.1-3,0.8-3.5,2.3c-0.7,2.2-1,4.5-0.9,6.9c0,1.3,0.1,2.5,0.2,3.8
	c0.1,1,0.3,2,0.6,2.9c0.3,0.8,0.7,1.5,1.4,2c0.7,0.5,1.5,0.7,2.3,0.7c1.5,0.1,3-0.8,3.5-2.3C516.2,169.5,516.5,167.1,516.4,164.7z"
	/>
<path class="st2" d="M513.9,62.8h-32.8c0.6,0.7,1,1.7,1,2.6v2.2H498c2.9,0,5.3,2.4,5.3,5.3v22.3h17.3c0.5-2.7,0.8-5.5,0.8-8.3
	C521.4,78.4,518.8,70,513.9,62.8z"/>
<path class="st4" d="M452.3,72.9c0-2.9,2.4-5.3,5.3-5.3H474v-2.1c0-2.1,1.7-3.8,3.8-4V44c-20.6,0.2-38.2,15-41.9,35.3h16.3
	L452.3,72.9L452.3,72.9z"/>
<path class="st0" d="M471.9,102.8l-5.2,9c-1.3,1.8-3.8,2.3-5.6,1c-1.6-1.1-2.2-3.3-1.3-5.1l2.9-5h-4v22.6c5.9,3,12.5,4.6,19.1,4.7
	v-27.3h-5.9V102.8z"/>
<path class="st6" d="M503.3,95.3v2.2l0,0c0,2.1-1.3,4-3.2,4.9l0,0c-0.1,0-0.2,0.1-0.3,0.1c-0.2,0.1-0.5,0.2-0.7,0.2l0,0
	c-0.4,0.1-0.7,0.1-1.1,0.1h-4.2l2.9,5c1.3,1.8,0.9,4.3-1,5.6s-4.3,0.9-5.6-1c-0.2-0.2-0.3-0.4-0.4-0.7l-5.2-9h-6.7V130h1.1
	c19.5-0.3,36.4-13.6,41.1-32.5c0.2-0.7,0.3-1.5,0.5-2.3L503.3,95.3z"/>
<path class="st3" d="M457.5,102.8c-1.4,0-2.8-0.6-3.8-1.6l-0.1-0.1c-0.2-0.2-0.4-0.4-0.5-0.7c-0.1-0.1-0.1-0.2-0.1-0.3
	c-0.1-0.2-0.2-0.4-0.3-0.6c-0.1-0.2-0.1-0.3-0.2-0.5c-0.1-0.1-0.1-0.3-0.1-0.4c-0.1-0.3-0.1-0.7-0.1-1V79.3H436
	c-3.3,18.1,5.3,36.4,21.4,45.3c0.4,0.2,0.8,0.5,1.3,0.7v-22.5H457.5L457.5,102.8z"/>
<path class="st5" d="M512,60.3C503.8,50,491.4,44,478.3,44h-0.5v17.5l0,0c0.1,0,0.2,0,0.3,0c1.2,0,2.3,0.5,3.1,1.4H514
	C513.3,62,512.7,61.1,512,60.3z"/>
</svg>
