<svg xmlns="http://www.w3.org/2000/svg" width="60.82" height="60.82" viewBox="0 0 60.82 60.82"><rect x="0.5" y="0.5" width="59.82" height="59.82" fill="#fff"/><path d="M59.82,1V59.82H1V1H59.82m1-1H0V60.82H60.82V0Z" fill="#e6e6e6"/><path d="M15.07,32.13c-.16.24-.31.49-.48.73a2.36,2.36,0,0,1-.76.78,1.28,1.28,0,0,1-1.31,0,1.55,1.55,0,0,1-.85-1.78,1.65,1.65,0,0,1,.36-.63c1.26-1.31,2.53-2.62,3.8-3.91a1.34,1.34,0,0,1,2,0c.5.46,1,1,1.47,1.46.74.76,1.48,1.53,2.21,2.3A1.59,1.59,0,0,1,22,32.86a1.49,1.49,0,0,1-2.42.53c-.3-.24-.56-.52-.89-.83,0,.34.06.64.11.93a12.61,12.61,0,0,0,2.62,5.74,14.32,14.32,0,0,0,8.82,5.31,12,12,0,0,0,7.44-1,15.08,15.08,0,0,0,6-4.8A13.05,13.05,0,0,0,46,33,16.7,16.7,0,0,0,46,28.18,13.25,13.25,0,0,0,42.75,21a14.23,14.23,0,0,0-8.4-4.63c-.63-.12-1.28-.16-1.92-.23a5.3,5.3,0,0,1-.55-.1,1.46,1.46,0,0,1-1.1-1.64A1.35,1.35,0,0,1,32,13.09a7.42,7.42,0,0,1,1.49,0,16.84,16.84,0,0,1,5.09,1.13A15.86,15.86,0,0,1,44.18,18a18.47,18.47,0,0,1,3.68,5.55,16.6,16.6,0,0,1,1.36,6.29,17.68,17.68,0,0,1-3.89,11.6,16,16,0,0,1-9.94,6,16.25,16.25,0,0,1-13.85-3.68,16.94,16.94,0,0,1-5.9-10.24c-.06-.31-.14-.62-.2-.93A.64.64,0,0,0,15.07,32.13Z" fill="#1b1464"/><path d="M33.7,26c0,1.1,0,2.21,0,3.32,0,.71,0,1.42-.1,2.13a3,3,0,0,1-.8,1.74c-.85.91-1.71,1.82-2.57,2.71s-1.51,1.54-2.27,2.3a2,2,0,0,1-1.27.64,1.61,1.61,0,0,1-1.53-2,2.88,2.88,0,0,1,.77-1.17l3.24-3.32c.16-.18.32-.36.49-.53a2.64,2.64,0,0,0,.78-2c0-1.64,0-3.28,0-4.92,0-1.26,0-2.52,0-3.79a3,3,0,0,1,.15-.89,1.49,1.49,0,0,1,1.58-1.07,1.56,1.56,0,0,1,1.42,1.23,4.16,4.16,0,0,1,.07.86c0,1.59,0,3.18,0,4.77Z" fill="#1b1464"/><path d="M32.6,41.33a8.42,8.42,0,0,1-.08,1,.94.94,0,0,1-1,.83,1,1,0,0,1-1.05-.8,1.86,1.86,0,0,1-.05-.34c0-.51,0-1,0-1.54a1.11,1.11,0,0,1,1.18-1.14.77.77,0,0,1,.77.54A3.67,3.67,0,0,1,32.6,41.33Z" fill="#1b1464"/><path d="M42.68,31.38c-.29,0-.58,0-.87,0a1,1,0,0,1-1-1.07,1,1,0,0,1,1-1c.58,0,1.17,0,1.76,0,.85,0,1.08.63,1,1.34a.92.92,0,0,1-.92.79c-.3,0-.61,0-.91,0Z" fill="#1b1464"/><path d="M39.6,20.94a.9.9,0,0,1,.89.49,1,1,0,0,1,0,1.09,4.47,4.47,0,0,1-1.78,1.56.91.91,0,0,1-1.18-.53,1.06,1.06,0,0,1,.18-1.12c.41-.43.83-.85,1.25-1.27A.71.71,0,0,1,39.6,20.94Z" fill="#1b1464"/><path d="M40.62,38.59c0,.71-.27.85-.77,1.11a.47.47,0,0,1-.28,0,3.3,3.3,0,0,1-1.46-1,3.78,3.78,0,0,1-.55-.76,1.11,1.11,0,0,1,.33-1.27,1.07,1.07,0,0,1,1.21,0A8.24,8.24,0,0,1,40.41,38,.85.85,0,0,1,40.62,38.59Z" fill="#1b1464"/></svg>