<svg xmlns="http://www.w3.org/2000/svg" width="86" height="85" version="1.1" viewBox="0 0 85.98 84.86"><rect width="85.98" height="84.86" fill="#bd1622"/><path d="M15,28.76v.69a4,4,0,0,1,3.36-1.69,4.4,4.4,0,0,1,3.49,1.49,6,6,0,0,1,1.3,4,6.52,6.52,0,0,1-1.38,4.37,4.55,4.55,0,0,1-3.67,1.64A4,4,0,0,1,15,38v1.79a7.77,7.77,0,0,0,0,1.06c.09.45.3.67.64.67a2.61,2.61,0,0,0,.46-.06,2.12,2.12,0,0,1,.46-.07.63.63,0,0,1,.71.71c0,.48-.31.72-.92.72a8,8,0,0,1-1-.09,12.65,12.65,0,0,0-1.44-.06,7.34,7.34,0,0,0-.88,0c-.58.07-1,.11-1.16.11a.94.94,0,0,1-.63-.23.65.65,0,0,1-.26-.52c0-.45.24-.68.74-.68a2.32,2.32,0,0,1,.41.06,3,3,0,0,0,.54.07.48.48,0,0,0,.51-.42,14.89,14.89,0,0,0,.12-2.35V30.4c0-.66-.2-1-.56-1a2.19,2.19,0,0,0-.47.07,2.31,2.31,0,0,1-.49.08c-.54,0-.8-.24-.8-.72s.32-.69,1-.69l.53,0c.36,0,.64,0,.81,0l.57,0a4.79,4.79,0,0,1,.55,0c.37,0,.55.2.55.61m.33,2.63a10.56,10.56,0,0,0-.22,2.06c0,.06,0,.16,0,.32v.3a6.69,6.69,0,0,0,.24,2.11,2.58,2.58,0,0,0,1,1.18,2.87,2.87,0,0,0,1.76.52,2.89,2.89,0,0,0,2.45-1.14,5.2,5.2,0,0,0,.87-3.23q0-4.32-3.12-4.32a3,3,0,0,0-1.88.63,2.68,2.68,0,0,0-1,1.57" transform="translate(0 0)" fill="#fff"/><path d="M34.22,39.22A2,2,0,0,1,32,37.68a4,4,0,0,1-3.52,1.63,4.36,4.36,0,0,1-2.84-.87,3,3,0,0,1,.5-4.95,4.41,4.41,0,0,1,1-.42c.28-.06.86-.15,1.72-.25a6.67,6.67,0,0,0,2.4-.54A1.35,1.35,0,0,0,31.85,31a1.7,1.7,0,0,0-.62-1.4,2.7,2.7,0,0,0-1.75-.51,3.38,3.38,0,0,0-1.84.54c-.22.15-.33.3-.33.46s.07.13.2.21a.86.86,0,0,1,.3.74.89.89,0,0,1-.31.71,1.18,1.18,0,0,1-.81.28,1.27,1.27,0,0,1-1-.39,1.28,1.28,0,0,1-.39-.95,2.52,2.52,0,0,1,1.22-2.07,5,5,0,0,1,3-.87q4,0,4,3.78v4.35a8.49,8.49,0,0,0,0,1.23c.08.51.33.76.74.76s.77-.46.77-1.38v-1a.6.6,0,0,1,.67-.68c.48,0,.71.34.71,1v1.34c0,1.39-.77,2.08-2.24,2.08m-2.43-4.3V33.38a2.86,2.86,0,0,1-1,.61,11.17,11.17,0,0,1-1.91.3c-1.66.16-2.5.76-2.5,1.82A1.56,1.56,0,0,0,27,37.4a2.55,2.55,0,0,0,1.63.48,3.25,3.25,0,0,0,2.32-.79,2.93,2.93,0,0,0,.87-2.17" transform="translate(0 0)" fill="#fff"/><path d="M40.48,28.75v.59A3.87,3.87,0,0,1,46,28.62,2.82,2.82,0,0,1,47,30.81a2.39,2.39,0,0,1-.48,1.55,1.58,1.58,0,0,1-1.28.59,1.26,1.26,0,0,1-.85-.3.92.92,0,0,1-.35-.74.83.83,0,0,1,.26-.61.84.84,0,0,1,.61-.27,1.44,1.44,0,0,1,.29.06,1,1,0,0,0,.13-.47,1.28,1.28,0,0,0-.56-1.06,2.19,2.19,0,0,0-1.39-.43,2.22,2.22,0,0,0-2.29,1.51,8.53,8.53,0,0,0-.35,2.81v1.42c0,1,0,1.51,0,1.63q.12,1.23.69,1.23a2.53,2.53,0,0,0,.59-.08,2.37,2.37,0,0,1,.42,0,.61.61,0,0,1,.7.68c0,.5-.3.74-.9.74h-.09a9.46,9.46,0,0,1-1-.07c-.45-.05-.78-.08-1-.08-.58,0-1,0-1.38.05l-1.22.1q-.9,0-.9-.75c0-.45.28-.67.84-.67l.34,0,.33.06.31,0c.37,0,.57-.33.6-1v-1.1L39,30.72c0-.85-.26-1.27-.66-1.27a2.58,2.58,0,0,0-.48.06,2.18,2.18,0,0,1-.48.07c-.49,0-.73-.23-.73-.69s.32-.76,1-.76c.14,0,.36,0,.65.05a5.58,5.58,0,0,0,.66.06,4.21,4.21,0,0,0,.57-.06,1.73,1.73,0,0,1,.42-.05c.38,0,.57.21.57.62" transform="translate(0 0)" fill="#fff"/><path d="M53,39.31a4.69,4.69,0,0,1-3.69-1.57,6.16,6.16,0,0,1-1.39-4.21,6.11,6.11,0,0,1,1.4-4.2,4.78,4.78,0,0,1,3.74-1.57,4.84,4.84,0,0,1,3.78,1.54,6,6,0,0,1,1.38,4.17,6.1,6.1,0,0,1-1.43,4.24A4.84,4.84,0,0,1,53,39.31m.11-10.12a3,3,0,0,0-2.42,1.06,5,5,0,0,0-1,3v.28a5.19,5.19,0,0,0,.87,3.19A2.87,2.87,0,0,0,53,37.88a3,3,0,0,0,2.51-1.16,5,5,0,0,0,.91-3.21q0-4.32-3.33-4.32" transform="translate(0 0)" fill="#fff"/><path d="M63.38,29.92v6.71c0,.73.22,1.1.6,1.1a3.11,3.11,0,0,0,.55-.11l.36,0a.64.64,0,0,1,.73.73c0,.48-.3.71-.9.71a10,10,0,0,1-1.11-.08,11,11,0,0,0-1.18-.09,8.81,8.81,0,0,0-1,.09,8.5,8.5,0,0,1-1,.08h-.11c-.62,0-.92-.25-.92-.77s.25-.67.75-.67h.16l.2,0a5.69,5.69,0,0,0,.64.12.47.47,0,0,0,.5-.34,9.26,9.26,0,0,0,.12-1.74l0-1.52V26.9a5.79,5.79,0,0,0-.06-.86.61.61,0,0,0-.62-.5l-.57.08a2.3,2.3,0,0,1-.39.05q-.75,0-.75-.69c0-.48.29-.72.88-.72l.41,0,.53.07a4.59,4.59,0,0,0,.59,0,5.25,5.25,0,0,0,.66-.06,4.1,4.1,0,0,1,.66-.07q.51,0,.51.63a1.27,1.27,0,0,1,0,.32q-.15,1.66-.15,4.71" transform="translate(0 0)" fill="#fff"/><path d="M76.69,32.58a2.7,2.7,0,0,1-.11,1c-.08.12-.29.18-.64.18H69a.65.65,0,0,0-.38.08.34.34,0,0,0-.08.25,3.88,3.88,0,0,0,1,2.7,3.2,3.2,0,0,0,2.46,1.08,3.14,3.14,0,0,0,1.77-.52,2.38,2.38,0,0,0,1-1.32l.2-.63a.68.68,0,0,1,.73-.51.72.72,0,0,1,.81.82A3.09,3.09,0,0,1,75,38.21a5.32,5.32,0,0,1-3.29,1.1,4.67,4.67,0,0,1-3.67-1.53,5.89,5.89,0,0,1-1.36-4.09,6.2,6.2,0,0,1,1.45-4.28,4.77,4.77,0,0,1,3.77-1.65,4.59,4.59,0,0,1,3.41,1.37,4.72,4.72,0,0,1,1.34,3.45m-8-.56q0,.3.48.3h5.25c.3,0,.46-.1.46-.3A2.66,2.66,0,0,0,74,30,2.89,2.89,0,0,0,72,29.19a3.31,3.31,0,0,0-2.24.88,2.52,2.52,0,0,0-1,2" transform="translate(0 0)" fill="#fff"/><path d="M43,48.49a3.87,3.87,0,0,1,2.45.76v-.09c0-.53.24-.8.7-.8s.73.23.73.69c0,.09,0,.31,0,.65a5.1,5.1,0,0,0-.07.87c0,.17,0,.42.05.75a6.92,6.92,0,0,1,.06.76c0,.55-.24.82-.72.82a.63.63,0,0,1-.71-.69v-.72a1.38,1.38,0,0,0-.76-1.11,3.14,3.14,0,0,0-1.72-.46,2.74,2.74,0,0,0-1.69.51,1.5,1.5,0,0,0-.68,1.26c0,.92.64,1.47,1.93,1.64l1.27.17c2.49.34,3.74,1.35,3.74,3a3.08,3.08,0,0,1-1.21,2.52,4.89,4.89,0,0,1-3.15,1A5.09,5.09,0,0,1,40,59v.41q0,.78-.75.78c-.54,0-.81-.3-.81-.89,0,.1,0-.27.13-1.12a4.26,4.26,0,0,0,0-.61,5.86,5.86,0,0,0-.08-1,4,4,0,0,1-.09-.72c0-.5.23-.75.7-.75.31,0,.5.07.58.21a3.43,3.43,0,0,1,.15,1.15,1.77,1.77,0,0,0,1,1.51,4.72,4.72,0,0,0,2.46.59,2.84,2.84,0,0,0,1.78-.54,1.66,1.66,0,0,0,.7-1.37c0-1-.79-1.54-2.37-1.7A9.59,9.59,0,0,1,40,54.12a2.33,2.33,0,0,1-1.18-2.24,3,3,0,0,1,1.16-2.45,4.62,4.62,0,0,1,3-.94" transform="translate(0 0)" fill="#fff"/><path d="M55.24,56.68V55.3c0-.59.27-.89.79-.89s.76.33.76,1a6.31,6.31,0,0,1-.61,3.28A3,3,0,0,1,53.46,60,2.78,2.78,0,0,1,51,58.84a5.07,5.07,0,0,1-.54-2.72V50.93c0-.3-.14-.45-.43-.45h-.72a.81.81,0,0,1-.59-.23.72.72,0,0,1-.24-.55.78.78,0,0,1,.23-.54.72.72,0,0,1,.52-.24h.85c.25,0,.38-.13.38-.41V46.29a.74.74,0,0,1,.85-.83c.53,0,.79.28.79.83V48.6c0,.21.14.32.4.32h2.39c.56,0,.84.25.84.76s-.3.8-.9.8H52.38c-.2,0-.31.15-.31.45v5.32c0,1.51.52,2.27,1.54,2.27s1.58-.61,1.63-1.84" transform="translate(0 0)" fill="#fff"/><path d="M61.47,53.4v2.81c0,.72,0,1.14,0,1.27.08.65.27,1,.59,1a3,3,0,0,0,.55-.1A1,1,0,0,1,63,58.3q.84,0,.84.72a.61.61,0,0,1-.28.51,1,1,0,0,1-.69.22,7.9,7.9,0,0,1-1.07-.1,9.41,9.41,0,0,0-1.07-.09,12.35,12.35,0,0,0-1.28.08c-.57.07-.95.11-1.14.11-.59,0-.88-.24-.88-.73s.25-.72.75-.72a2.57,2.57,0,0,1,.52.07,3.28,3.28,0,0,0,.52.06c.36,0,.57-.46.64-1.38V51.52c-.07-.91-.29-1.37-.66-1.37a2.39,2.39,0,0,0-.5.08,2.34,2.34,0,0,1-.48.08c-.53,0-.79-.24-.79-.7s.32-.73,1-.73l.6,0q.69.09.9.09a3.65,3.65,0,0,0,.53-.06,5.07,5.07,0,0,1,.54,0c.43,0,.64.28.64.84,0,.06,0,.14,0,.26s0,.2,0,.26,0,.56,0,1.34c0,.59,0,1.2,0,1.82m-1.14-5.67a1.22,1.22,0,0,1-.87-.35,1.18,1.18,0,0,1-.36-.86,1.12,1.12,0,0,1,.36-.84,1.22,1.22,0,0,1,.87-.35,1.25,1.25,0,0,1,.87.35,1.12,1.12,0,0,1,.36.84,1.18,1.18,0,0,1-.36.86,1.22,1.22,0,0,1-.87.35" transform="translate(0 0)" fill="#fff"/><path d="M68.17,50.64v6.71c0,.74.21,1.1.6,1.1a2.91,2.91,0,0,0,.55-.1l.36-.05a.65.65,0,0,1,.73.74c0,.47-.3.71-.9.71a10.86,10.86,0,0,1-1.12-.09c-.51,0-.9-.08-1.18-.08s-.58,0-1,.08a9.06,9.06,0,0,1-1,.09H65c-.61,0-.91-.26-.91-.78s.25-.67.75-.67H65l.2,0a5.66,5.66,0,0,0,.65.12.45.45,0,0,0,.49-.33,9.13,9.13,0,0,0,.13-1.75l0-1.52V47.63a7.39,7.39,0,0,0-.07-.87.61.61,0,0,0-.61-.5l-.57.09a2.23,2.23,0,0,1-.4,0c-.5,0-.74-.23-.74-.69S64.4,45,65,45l.42,0,.53.06a4.84,4.84,0,0,0,.59,0,4.1,4.1,0,0,0,.66-.07,5.25,5.25,0,0,1,.66-.06c.33,0,.5.21.5.62a2.38,2.38,0,0,1,0,.33c-.1,1.11-.15,2.67-.15,4.7" transform="translate(0 0)" fill="#fff"/><path d="M75.06,53.4v2.81c0,.72,0,1.14,0,1.27.08.65.27,1,.6,1a3.16,3.16,0,0,0,.54-.1,1,1,0,0,1,.33-.05q.84,0,.84.72a.61.61,0,0,1-.28.51,1,1,0,0,1-.69.22,7.9,7.9,0,0,1-1.07-.1,9.41,9.41,0,0,0-1.07-.09,12.35,12.35,0,0,0-1.28.08c-.57.07-1,.11-1.14.11-.59,0-.88-.24-.88-.73s.25-.72.75-.72a2.57,2.57,0,0,1,.52.07,3.28,3.28,0,0,0,.52.06c.36,0,.57-.46.64-1.38V51.52c-.07-.91-.29-1.37-.66-1.37a2.39,2.39,0,0,0-.5.08,2.34,2.34,0,0,1-.48.08c-.53,0-.79-.24-.79-.7s.32-.73,1-.73l.6,0q.69.09.9.09a3.65,3.65,0,0,0,.53-.06c.25,0,.43,0,.54,0,.43,0,.64.28.64.84,0,.06,0,.14,0,.26s0,.2,0,.26,0,.56,0,1.34c0,.59,0,1.2,0,1.82m-1.14-5.67a1.22,1.22,0,0,1-.87-.35,1.18,1.18,0,0,1-.36-.86,1.12,1.12,0,0,1,.36-.84,1.22,1.22,0,0,1,.87-.35,1.25,1.25,0,0,1,.87.35,1.12,1.12,0,0,1,.36.84,1.18,1.18,0,0,1-.36.86,1.25,1.25,0,0,1-.87.35" transform="translate(0 0)" fill="#fff"/><path d="M21.69,58.09a1,1,0,0,1-1-1,1,1,0,0,1,.28-.68,6.64,6.64,0,0,1,9.26,0,1,1,0,1,1-1.38,1.36,4.65,4.65,0,0,0-6.49,0,1,1,0,0,1-.7.29" transform="translate(0 0)" fill="#fff"/><path d="M25.63,63.06a9.34,9.34,0,1,1,9.49-9.34,9.42,9.42,0,0,1-9.49,9.34m0-16.75a7.42,7.42,0,1,0,7.54,7.41,7.48,7.48,0,0,0-7.54-7.41" transform="translate(0 0)" fill="#fff"/><path d="M22.51,50.74a1.46,1.46,0,0,0-.63,1.2,1.49,1.49,0,0,0,1.5,1.47,1.5,1.5,0,0,0,1.37-.89Z" transform="translate(0 0)" fill="#fff"/><path d="M28.73,50.74a1.48,1.48,0,1,1-2.23,1.78Z" transform="translate(0 0)" fill="#fff"/></svg>
